<svg width="60" height="60" viewBox="0 0 60 60" fill="none" xmlns="http://www.w3.org/2000/svg">
<rect width="60" height="60" rx="2" fill="#3E9CFF"/>
<path fill-rule="evenodd" clip-rule="evenodd" d="M52 7H43H20C19.4477 7 19 7.44772 19 8V16C19 16.5523 19.4477 17 20 17H25H30.5858H33L31.2929 18.7071L29.5 20.5L19.2929 30.7071C19.1054 30.8946 19 31.149 19 31.4142V40C19 40.5523 19.4477 41 20 41H28.5858C28.851 41 29.1054 40.8946 29.2929 40.7071L52.7071 17.2929C52.8946 17.1054 53 16.851 53 16.5858V8C53 7.44772 52.5523 7 52 7ZM16 19C16.5523 19 17 19.4477 17 20V42C17 42.5523 17.4477 43 18 43H40C40.5523 43 41 43.4477 41 44V52C41 52.5523 40.5523 53 40 53H17H8C7.44772 53 7 52.5523 7 52V43V20C7 19.4477 7.44772 19 8 19H16ZM43 32C43 31.4477 43.4477 31 44 31H52C52.5523 31 53 31.4477 53 32V40C53 40.5523 52.5523 41 52 41H44C43.4477 41 43 40.5523 43 40V32Z" fill="white"/>
</svg>
